<svg xmlns="http://www.w3.org/2000/svg" version="1.1" xmlns:xlink="http://www.w3.org/1999/xlink" xmlns:svgjs="http://svgjs.com/svgjs" height="148.24064537122263" width="257.54998779296875"><defs id="SvgjsDefs1337"></defs><g id="SvgjsG1338" rel="mainfill" name="main_text" xmlns:name="main_text" transform="translate(-0.7799999713897705,-104.95935157701956)" fill="#ffffff"><path d="M35.15 208.98L33.86 208.59Q33.81 208.31 33.75 208.06Q33.70 207.81 33.64 207.53Q33.03 205.02 32.56 203.49Q32.08 201.96 31.69 201.62Q31.64 201.62 31.22 201.62Q30.80 201.62 30.24 201.62Q29.69 201.62 29.07 201.65Q28.46 201.68 28.07 201.68Q27.85 201.62 27.57 201.62Q27.29 201.62 26.96 201.62Q25.06 201.62 23.39 202.01Q21.72 202.40 21.17 203.52Q21.11 203.85 21.03 204.63Q20.94 205.41 20.89 206.50Q20.83 207.58 20.80 208.84Q20.78 210.09 20.78 211.32Q20.78 212.26 20.83 213.85Q20.89 215.44 21.00 217.61Q21.05 218.39 21.08 219.73Q21.11 221.06 21.14 222.59Q21.17 224.13 21.17 225.74Q21.17 227.36 21.19 228.75Q21.22 230.14 21.22 231.17Q21.22 232.20 21.22 232.54Q21.22 232.81 21.22 233.07Q21.22 233.32 21.17 233.59L21.17 234.54Q21.11 235.66 21.05 236.99Q21.00 238.33 20.94 239.00Q20.94 239.28 20.91 239.64Q20.89 240 20.83 240.45Q20.78 240.72 20.78 240.92Q20.78 241.11 20.78 241.23Q20.78 241.84 21.00 241.89Q22.50 243.01 23.25 243.48Q24.01 243.95 24.34 243.95Q24.56 243.95 24.73 243.68Q25.01 243.23 25.51 243.23L25.34 244.90L9.86 246.91L9.47 245.40Q10.81 245.29 11.61 244.82Q12.42 244.34 13.42 242.67Q13.65 242.45 13.76 240.56Q13.81 239.83 13.87 239.30Q13.92 238.77 13.98 238.38L18.32 202.46L15.21 201.62Q14.65 201.51 14.09 201.51Q13.26 201.51 12.14 201.71Q11.03 201.90 9.97 202.18Q8.91 202.46 8.13 202.77Q7.35 203.07 7.13 203.29Q6.80 203.52 6.04 204.55Q5.29 205.58 4.51 207.00Q3.73 208.42 3.15 210.01Q2.56 211.59 2.56 212.93Q2.56 213.10 2.62 213.26L2.62 213.60L0.78 213.77L4.07 200.40L36.15 199.79L35.15 208.98ZM38.04 243.29L38.04 243.40Q37.87 244.46 37.87 244.85Q37.93 245.07 38.04 245.12Q38.15 245.29 39.16 245.24Q40.21 245.18 40.97 245.26Q41.72 245.35 42.22 245.79L41.77 246.68L29.02 245.40L29.46 243.62Q29.97 244.18 30.47 244.32Q30.97 244.46 31.80 244.46Q32.69 244.46 33.31 244.51Q33.81 244.51 33.92 244.07Q34.03 243.62 33.98 242.67Q33.92 241.73 34.03 241.28L34.48 238.27Q34.53 237.99 34.56 236.83Q34.59 235.66 34.59 234.35Q34.59 233.04 34.56 232.06Q34.53 231.09 34.53 230.98Q34.25 227.08 34.14 226.10Q34.03 225.13 33.81 224.57Q33.81 224.52 33.36 224.29Q32.92 224.07 32.39 223.76Q31.86 223.46 31.55 223.32Q31.25 223.18 31.19 223.18Q31.14 223.18 31.08 223.07Q30.86 222.62 30.72 222.65Q30.58 222.68 30.52 222.73L30.41 222.73L29.69 221.17L31.75 221.90Q32.47 222.18 33.20 222.12Q34.31 222.07 35.87 221.12Q36.32 220.84 36.43 220.78Q36.59 220.78 37.35 220.31Q38.10 219.84 39.16 219.17Q40.21 218.56 40.55 218.33Q40.88 218.11 40.94 218.11L40.72 218.61Q40.49 219.11 40.38 219.42Q40.27 219.73 39.99 220.39Q39.99 220.51 39.94 220.56L41.55 220.28L45.34 220.39L47.68 221.23L50.41 223.40L51.47 225.24Q51.58 225.18 51.66 225.71Q51.74 226.24 51.74 226.94Q51.74 227.63 51.66 228.28Q51.58 228.92 51.35 228.97L49.35 230.42L45.17 231.48Q47.62 231.59 49.54 232.45Q51.47 233.32 52.55 234.74Q53.64 236.16 53.67 238.05Q53.69 239.94 52.36 242.01L50.24 244.62L47.68 245.46L42.94 245.35L40.66 244.62L38.04 243.29M47.57 241.50Q48.29 240.06 48.40 238.44Q48.51 236.83 47.65 235.52Q46.79 234.21 44.67 233.43Q42.55 232.65 38.88 232.87L38.26 241.56L40.55 242.62L42.11 242.67L47.57 241.50L47.57 241.50M39.71 221.84L39.04 230.64L43.28 230.14Q44.00 229.81 44.78 229.17Q45.56 228.53 46.09 227.75Q46.62 226.97 46.79 226.19Q46.95 225.41 46.51 224.85L45.00 223.23L43.95 222.51L41.50 221.84L39.71 221.84ZM64.55 228.08Q64.44 227.75 64.44 227.41Q64.44 226.69 65.11 226.02Q65.72 225.41 66.56 225.41Q68.51 226.41 69.54 227.83Q70.57 229.25 70.90 231.42Q71.02 231.87 71.04 232.20Q71.07 232.54 71.07 233.15Q71.07 234.10 70.85 234.74Q70.63 235.38 70.01 236.10Q69.62 236.71 69.18 237.08Q68.73 237.44 68.01 237.72L67.73 236.27Q68.79 236.10 69.51 235.38Q70.40 234.49 70.46 233.48Q70.46 232.37 70.35 231.76Q70.24 231.14 69.90 230.53Q69.40 229.47 68.79 228.83Q68.17 228.19 67.17 227.80Q67.06 227.75 66.84 227.69Q66.45 227.47 66.28 227.47Q65.89 227.47 65.67 228.08L65.56 228.41Q65.33 228.92 65.33 229.19Q65.33 229.47 65.56 229.81L65.89 231.09L67.01 231.26L68.06 230.64L68.40 231.09L67.90 231.76Q67.28 232.20 66.67 232.20Q66.00 232.20 65.45 231.76Q64.78 231.31 64.61 230.36L64.55 228.08L64.55 228.08M77.87 230.59Q77.87 230.98 77.92 231.98Q77.98 232.70 77.98 233.20Q77.98 234.65 77.42 236.07Q76.86 237.49 75.19 239.44Q73.80 241.17 71.74 242.20Q69.68 243.23 67.45 243.23Q66.39 243.23 65.03 242.98Q63.66 242.73 62.19 242.23Q60.71 241.73 59.51 241.06Q58.32 240.39 57.59 239.61Q56.87 238.83 56.59 237.72Q56.31 236.60 56.31 235.10Q56.31 234.32 56.37 232.81Q56.42 231.31 56.42 230.59Q56.42 228.58 57.23 227.22Q58.04 225.85 59.76 224.01Q61.05 222.62 62.88 222.20Q64.72 221.79 67.51 221.79Q68.62 221.79 69.51 222.01Q69.57 222.01 69.57 222.07Q69.57 222.18 69.46 222.46Q69.34 222.90 69.34 223.01Q69.34 223.07 69.40 223.12L69.40 223.18L68.45 223.18Q67.40 223.18 65.89 223.49Q64.39 223.79 63.83 224.29Q62.66 225.30 62.30 226.35Q61.94 227.41 61.94 229.86Q61.94 233.48 63.77 237.05Q64.89 239.22 65.84 240.31Q66.78 241.39 68.23 241.39Q69.34 241.39 70.63 240.22Q71.91 239.05 72.74 237.66L72.91 237.44Q73.86 235.88 74.41 234.63Q74.97 233.37 74.97 231.81Q74.97 230.09 73.97 228.80Q72.96 227.52 71.91 227.30Q71.41 227.19 70.63 226.94Q69.85 226.69 69.68 226.52Q69.79 226.52 69.79 226.41Q69.79 226.24 69.68 225.63Q69.51 225.13 69.51 225.02Q69.51 224.96 69.62 224.96Q69.73 225.07 70.12 225.13Q70.51 225.18 71.29 225.24Q72.57 225.35 72.74 225.46Q72.85 225.52 73.74 225.91Q75.86 226.86 76.86 227.77Q77.87 228.69 77.87 230.59M72.24 247.24Q71.96 247.24 71.60 247.41Q71.24 247.57 70.68 247.91Q70.24 248.19 70.12 248.19Q70.07 248.19 69.65 248.16Q69.23 248.13 68.37 248.02Q67.51 247.91 67.06 247.83Q66.62 247.74 66.45 247.63L59.49 248.35Q59.93 248.13 60.85 247.69Q61.77 247.24 62.49 247.02Q63.44 246.74 64.64 246.57Q65.84 246.41 66.45 246.35L67.01 246.91L72.24 247.24L72.24 247.24ZM74.25 240.78Q74.36 240.67 74.55 240.39Q74.75 240.11 75.08 240.11L75.19 240.17L75.30 240.17L77.81 241.56Q78.14 241.23 78.67 240.61Q79.20 240 79.93 239.05Q80.65 238.16 81.26 237.38Q81.88 236.60 82.38 235.99Q83.38 234.65 84.41 233.37Q85.44 232.09 85.83 231.59L85.83 231.53Q85.83 231.42 85.89 231.39Q85.94 231.37 86.08 231.23Q86.22 231.09 86.44 230.75Q86.67 230.42 87.00 229.75Q88.34 227.02 88.34 226.74Q88.23 226.74 87.75 226.63Q87.28 226.52 86.75 226.35Q86.22 226.19 85.78 226.08Q85.33 225.96 85.16 225.96Q83.21 225.13 82.32 223.79Q81.43 222.46 81.43 220.84Q81.43 219.45 82.02 218.08Q82.60 216.72 83.55 215.77L84.10 215.16Q85.11 214.04 85.94 213.26Q86.78 212.49 87.45 212.15Q88.17 211.76 89.84 211.76Q90.79 211.76 91.37 211.87Q91.96 211.98 93.29 212.15L103.38 213.77L102.87 214.55L102.37 214.55L101.82 214.55Q100.98 214.55 100.70 214.49Q100.48 214.43 99.90 214.38Q99.31 214.32 98.31 214.21Q98.14 214.21 98.08 214.85Q98.03 215.49 98.06 216.36Q98.08 217.22 98.11 218.05Q98.14 218.89 98.14 219.28L98.53 234.26Q98.53 234.60 98.50 235.35Q98.47 236.10 98.47 236.94Q98.47 237.77 98.50 238.41Q98.53 239.05 98.59 239.11Q98.75 239.28 99.67 239.42Q100.59 239.55 102.10 239.72Q102.32 239.78 102.46 239.78Q102.60 239.78 102.65 239.78L102.60 240.17L88.84 241.62L88.89 241.17Q89.23 241.17 89.90 241.00Q90.57 240.84 91.29 240.61Q92.01 240.39 92.57 240.19Q93.13 240 93.24 239.94Q93.91 239.39 94.02 238.22L94.63 227.08Q94.46 227.02 93.35 227.02Q93.29 227.02 93.41 227.02Q93.52 227.02 93.66 227.02Q93.80 227.02 93.91 227.02Q94.02 227.02 93.91 227.02Q93.74 226.97 93.57 226.97Q93.29 226.97 92.77 226.94Q92.24 226.91 91.40 226.86Q90.79 226.86 90.31 226.86Q89.84 226.86 89.40 226.80Q89.17 227.30 88.73 228.64Q88.28 229.97 87.67 231.59Q87.11 233.15 86.58 233.98Q86.05 234.82 85.83 235.27Q85.66 235.43 84.88 237.10Q84.33 238.16 83.74 239.28Q83.16 240.39 82.60 241.36Q82.04 242.34 81.51 243.06Q80.99 243.79 80.54 243.95L84.27 248.35L83.16 249.36Q81.43 245.57 79.31 243.95Q77.14 242.40 74.25 240.78M87.56 218.83Q87.34 219.28 87.34 220.62Q87.34 221.90 87.61 222.96Q87.89 224.01 88.45 224.29L89.12 224.63Q90.40 225.30 91.46 225.77Q92.51 226.24 93.18 226.30L93.02 226.30Q93.29 226.35 93.43 226.35Q93.57 226.35 93.63 226.35Q93.74 226.35 93.85 226.30Q94.13 226.24 94.63 226.24L94.97 214.38Q94.97 213.54 94.85 213.43L94.85 213.38Q94.63 213.15 94.13 213.04Q94.02 213.04 94.07 213.01Q94.13 212.99 94.16 212.99Q94.19 212.99 94.16 212.96Q94.13 212.93 93.91 212.93Q93.35 212.82 92.96 212.76Q92.57 212.71 92.35 212.71Q92.01 212.71 91.85 212.76Q91.29 212.93 90.68 213.68Q90.06 214.43 89.45 215.38Q88.84 216.33 88.34 217.30Q87.84 218.28 87.56 218.83ZM150.61 246.02L128.50 253.20L128.50 252.53Q129.05 252.48 130.08 252.06Q131.11 251.64 132.23 251.08Q133.34 250.53 134.21 250.03Q135.07 249.52 135.24 249.36Q135.40 249.19 135.46 247.96Q135.51 246.74 135.51 245.18Q135.51 244.68 135.46 243.29Q135.46 242.73 135.46 242.34Q135.40 241.34 135.35 238.66Q135.29 235.99 135.24 231.81Q135.24 231.26 135.29 229.14Q135.35 226.24 135.35 224.29Q135.35 223.46 135.01 221.56Q134.73 219.61 134.73 218.78Q134.73 215.72 134.79 211.93Q134.85 208.14 134.85 206.25L123.98 241.84L122.93 240.06L112.84 213.43L109.28 237.22Q109.28 237.27 109.28 237.55Q109.22 237.77 109.22 237.94Q109.22 239.28 109.78 240.75Q110.34 242.23 110.78 242.73Q110.95 242.90 111.90 243.45Q112.84 244.01 113.82 244.57Q114.79 245.12 115.82 245.57Q116.86 246.02 117.30 246.07L117.30 246.68L100.09 242.34L100.48 241.84Q101.43 241.84 103.60 242.06Q105.38 242.23 105.88 242.23Q106.61 242.23 106.77 242.06Q107.16 241.50 107.61 240.31Q108.05 239.11 108.17 237.83L110.56 212.37Q110.56 211.26 110.39 210.26Q110.23 209.25 109.95 208.92Q109.78 208.75 108.92 208.45Q108.05 208.14 106.94 207.81Q105.83 207.47 104.74 207.25Q103.65 207.03 103.15 206.97L103.15 206.25L113.68 207.86L117.97 213.54L126.38 231.42L134.07 203.57L146.26 199.84L146.26 200.51Q145.76 200.57 144.82 201.07Q143.87 201.57 142.84 202.26Q141.81 202.96 140.97 203.57Q140.14 204.19 139.97 204.35Q139.19 205.13 139.19 206.58L139.25 206.86Q139.25 206.97 139.25 207.14L142.92 242.45Q143.03 243.34 143.40 244.01Q143.76 244.68 144.20 245.07Q144.26 245.12 144.31 245.18Q144.54 245.46 144.84 245.57Q145.15 245.68 145.87 245.68Q147.43 245.68 151.05 244.90L150.61 246.02ZM172.55 229.36Q172.00 230.09 170.97 231.31Q169.94 232.54 168.74 233.85Q167.54 235.15 166.37 236.38Q165.20 237.60 164.42 238.33Q163.92 238.77 162.81 239.42Q161.69 240.06 160.41 240.58Q159.13 241.11 157.88 241.50Q156.62 241.89 155.90 241.95Q154.90 241.95 153.87 241.48Q152.84 241.00 151.33 240.11Q149.49 239.00 148.60 238.72Q147.88 238.50 147.35 237.60Q146.82 236.71 146.49 235.54Q146.15 234.37 145.99 233.18Q145.82 231.98 145.76 230.98Q145.76 230.87 145.76 230.64Q145.76 230.31 145.76 230.25Q145.76 229.19 145.93 227.83Q146.10 226.47 146.40 225.04Q146.71 223.62 147.13 222.43Q147.54 221.23 147.99 220.56Q148.49 219.84 149.36 218.95Q150.22 218.05 151.19 217.28Q152.17 216.50 153.17 215.99Q154.17 215.49 155.01 215.44Q155.73 215.44 156.71 215.69Q157.68 215.94 158.66 216.36Q159.63 216.77 160.41 217.25Q161.19 217.72 161.64 218.17Q162.47 219.00 162.97 220.23Q163.47 221.45 163.75 222.84Q164.09 224.63 164.20 227.80Q164.25 229.31 164.31 229.70L159.24 228.64Q158.74 228.58 157.57 228.53Q156.40 228.47 156.12 228.47L155.73 228.47Q155.45 228.53 155.18 228.53Q154.17 228.53 153.53 228.19Q152.89 227.86 152.89 226.91Q152.89 226.52 153.00 226.08Q153.06 225.80 153.34 225.30Q153.62 224.79 154.45 224.40Q154.17 225.41 154.17 226.08Q154.17 226.97 154.70 227.22Q155.23 227.47 156.62 227.47Q157.13 227.47 158.07 227.69Q159.02 227.91 159.52 228.08Q159.52 228.02 159.52 227.80Q159.46 227.41 159.46 227.13Q159.46 226.24 159.58 223.85Q159.74 221.45 159.74 220.56Q159.74 219.67 159.63 219.50Q159.07 218.61 157.68 217.69Q156.29 216.77 155.23 216.77Q154.17 216.83 152.84 217.92Q151.50 219.00 151.00 220.06Q150.89 220.28 150.72 221.29Q150.55 222.29 150.39 223.46Q150.22 224.63 150.08 225.66Q149.94 226.69 149.94 226.97Q150.00 227.19 150.00 227.97Q150.11 229.58 150.33 230.53Q150.44 231.42 151.00 232.48Q151.56 233.54 152.31 234.57Q153.06 235.60 153.76 236.38Q154.45 237.16 154.84 237.38Q155.51 237.88 156.12 238.55Q156.62 239.00 156.93 239.16Q157.24 239.33 157.90 239.33Q158.52 239.28 159.30 238.86Q160.08 238.44 161.25 237.72Q162.08 237.22 162.42 237.05Q166.43 234.93 168.35 233.40Q170.27 231.87 170.27 230.03Q170.27 229.08 169.71 228.08L172.55 229.36L172.55 229.36ZM189.93 227.25Q189.93 227.47 189.93 227.80Q189.93 228.14 189.99 228.64Q190.04 229.03 190.04 229.31Q190.04 229.58 190.04 229.86Q190.04 231.31 189.49 232.73Q188.93 234.15 187.26 236.10Q185.87 237.83 183.80 238.86Q181.74 239.89 179.52 239.89Q178.46 239.89 177.23 239.53Q176.01 239.16 174.78 238.64Q173.56 238.11 172.39 237.47Q171.22 236.83 170.33 236.27Q169.66 235.88 169.21 234.32Q168.77 232.76 168.57 230.53Q168.38 228.30 168.35 225.66Q168.32 223.01 168.49 220.39Q168.65 217.78 168.91 215.46Q169.16 213.15 169.55 211.54Q169.88 210.03 170.35 208.84Q170.83 207.64 171.58 206.69Q172.33 205.75 173.42 205.05Q174.50 204.35 176.12 203.80L179.68 203.96L182.69 202.85Q183.19 202.13 183.14 200.62L185.20 200.06Q185.03 202.24 184.61 203.80Q184.19 205.36 183.41 206.36L178.57 209.48L173.11 209.70Q171.61 211.71 170.97 214.69Q170.33 217.66 170.33 222.34Q170.99 221.62 171.83 220.67Q173.11 219.28 174.92 218.86Q176.73 218.44 179.57 218.44Q180.74 218.44 181.58 218.67Q181.63 218.67 181.63 218.72Q181.63 218.78 181.52 219.11Q181.41 219.67 181.41 219.67Q181.41 219.73 181.47 219.78L181.47 219.84L180.52 219.84Q180.02 219.84 179.32 219.92Q178.62 220.00 177.96 220.14Q177.29 220.28 176.73 220.51Q176.17 220.73 175.90 220.95Q175.28 221.45 174.92 221.93Q174.56 222.40 174.36 223.01Q174.17 223.62 174.09 224.46Q174.00 225.30 174.00 226.52Q174.00 230.14 175.84 233.71Q176.95 235.88 177.90 236.96Q178.85 238.05 180.30 238.05Q180.85 238.05 181.47 237.72Q182.08 237.38 182.69 236.85Q183.30 236.32 183.83 235.66Q184.36 234.99 184.81 234.32L184.97 234.10Q185.92 232.54 186.48 231.28Q187.04 230.03 187.04 228.47Q187.04 226.74 186.03 225.46Q185.03 224.18 183.97 223.96Q183.47 223.85 182.69 223.60Q181.91 223.35 181.74 223.18Q181.86 223.18 181.86 223.07Q181.24 222.96 180.80 222.96Q180.35 222.96 179.79 223.01Q178.35 223.35 177.96 224.18Q177.51 225.13 177.43 225.69Q177.34 226.24 177.57 226.97Q177.84 228.19 178.37 229.08Q178.90 229.97 180.02 230.81Q180.13 230.92 180.18 230.95Q180.24 230.98 180.46 231.09Q180.74 231.48 181.02 231.59Q181.47 231.81 182.08 231.37L182.30 231.14Q182.86 230.75 182.86 230.64Q183.02 230.42 182.80 229.92L182.86 228.69L181.52 227.91L179.96 227.86L179.68 227.30L180.52 227.02Q181.47 226.97 182.30 227.30Q183.02 227.58 183.69 228.36Q184.36 229.03 184.25 229.97L183.47 231.98Q183.47 232.43 183.36 232.59Q183.14 233.15 181.97 233.43Q181.52 233.54 180.99 233.48Q180.46 233.43 179.91 233.20Q177.79 231.26 177.01 229.50Q176.23 227.75 176.62 225.69Q176.62 225.24 176.70 224.93Q176.79 224.63 177.01 224.07Q177.34 223.29 177.87 222.87Q178.40 222.46 179.46 222.18Q180.35 221.73 181.58 221.73L181.58 221.68Q181.58 221.62 181.69 221.62Q181.80 221.73 181.91 221.79Q182.08 221.79 182.25 221.81Q182.41 221.84 182.58 221.84Q182.80 221.90 183.36 221.90Q184.53 221.95 184.81 222.12Q184.81 222.12 185.81 222.57Q187.93 223.51 188.93 224.43Q189.93 225.35 189.93 227.25ZM217.56 229.36Q217.00 230.09 215.97 231.31Q214.94 232.54 213.74 233.85Q212.54 235.15 211.38 236.38Q210.21 237.60 209.43 238.33Q208.92 238.77 207.81 239.42Q206.70 240.06 205.42 240.58Q204.13 241.11 202.88 241.50Q201.63 241.89 200.90 241.95Q199.90 241.95 198.87 241.48Q197.84 241.00 196.34 240.11Q194.50 239.00 193.61 238.72Q192.88 238.50 192.35 237.60Q191.83 236.71 191.49 235.54Q191.16 234.37 190.99 233.18Q190.82 231.98 190.77 230.98Q190.77 230.87 190.77 230.64Q190.77 230.31 190.77 230.25Q190.77 229.19 190.93 227.83Q191.10 226.47 191.41 225.04Q191.71 223.62 192.13 222.43Q192.55 221.23 192.99 220.56Q193.50 219.84 194.36 218.95Q195.22 218.05 196.20 217.28Q197.17 216.50 198.17 215.99Q199.18 215.49 200.01 215.44Q200.74 215.44 201.71 215.69Q202.69 215.94 203.66 216.36Q204.64 216.77 205.42 217.25Q206.20 217.72 206.64 218.17Q207.48 219.00 207.98 220.23Q208.48 221.45 208.76 222.84Q209.09 224.63 209.20 227.80Q209.26 229.31 209.31 229.70L204.25 228.64Q203.74 228.58 202.57 228.53Q201.41 228.47 201.13 228.47L200.74 228.47Q200.46 228.53 200.18 228.53Q199.18 228.53 198.54 228.19Q197.90 227.86 197.90 226.91Q197.90 226.52 198.01 226.08Q198.06 225.80 198.34 225.30Q198.62 224.79 199.46 224.40Q199.18 225.41 199.18 226.08Q199.18 226.97 199.71 227.22Q200.24 227.47 201.63 227.47Q202.13 227.47 203.08 227.69Q204.02 227.91 204.52 228.08Q204.52 228.02 204.52 227.80Q204.47 227.41 204.47 227.13Q204.47 226.24 204.58 223.85Q204.75 221.45 204.75 220.56Q204.75 219.67 204.64 219.50Q204.08 218.61 202.69 217.69Q201.29 216.77 200.24 216.77Q199.18 216.83 197.84 217.92Q196.50 219.00 196.00 220.06Q195.89 220.28 195.72 221.29Q195.56 222.29 195.39 223.46Q195.22 224.63 195.08 225.66Q194.94 226.69 194.94 226.97Q195.00 227.19 195.00 227.97Q195.11 229.58 195.33 230.53Q195.45 231.42 196.00 232.48Q196.56 233.54 197.31 234.57Q198.06 235.60 198.76 236.38Q199.46 237.16 199.85 237.38Q200.51 237.88 201.13 238.55Q201.63 239.00 201.93 239.16Q202.24 239.33 202.91 239.33Q203.52 239.28 204.30 238.86Q205.08 238.44 206.25 237.72Q207.09 237.22 207.42 237.05Q211.43 234.93 213.35 233.40Q215.27 231.87 215.27 230.03Q215.27 229.08 214.72 228.08L217.56 229.36L217.56 229.36ZM210.26 244.40Q210.43 244.40 210.82 244.40Q211.60 244.34 212.04 244.29Q212.49 244.23 212.60 244.07Q212.71 243.90 213.55 241.31Q214.38 238.72 215.11 236.32Q215.83 233.93 216.50 231.67Q217.17 229.42 217.22 228.97L220.79 219.45L221.35 217.61Q221.68 216.22 221.79 215.72Q221.90 215.21 222.18 214.13Q222.46 213.04 222.51 212.93Q222.57 212.93 222.65 213.29Q222.74 213.65 222.85 214.38Q223.02 215.38 223.10 215.72Q223.18 216.05 223.24 216.05Q223.29 216.05 223.49 216.55Q223.68 217.05 223.80 217.33Q223.85 217.39 224.02 218.22L224.07 218.56L229.76 232.09Q230.20 233.20 230.73 234.26Q231.26 235.32 231.59 235.60Q231.87 235.88 232.93 235.88Q233.88 235.88 234.32 235.49L234.32 236.55L224.07 239.11L224.19 237.83Q224.69 237.77 225.52 237.69Q226.36 237.60 226.58 237.49Q227.19 237.10 227.19 236.44Q227.19 235.60 227.14 235.43Q227.14 235.27 226.69 234.49Q226.47 234.15 226.41 234.04Q226.25 233.76 225.94 233.34Q225.63 232.93 223.85 230.17Q222.07 227.41 221.62 226.69Q221.51 226.47 221.46 226.35Q221.07 225.80 221.01 225.41Q220.90 224.96 220.73 224.82Q220.57 224.68 220.40 224.68L216.61 235.38Q216.56 235.60 215.16 239.11Q214.77 240.06 214.72 240.17Q214.61 240.50 214.38 241.81Q214.16 243.12 214.16 243.29Q214.16 244.01 214.88 244.34L216.05 244.34L216.28 245.01L209.93 245.24L210.26 244.40ZM245.80 211.98Q245.74 212.10 245.60 212.49Q245.46 212.87 245.30 213.38Q245.13 213.88 244.99 214.35Q244.85 214.82 244.79 215.05L244.63 233.04Q244.68 233.09 244.68 233.20Q244.91 233.82 245.21 234.57Q245.52 235.32 245.82 235.96Q246.13 236.60 246.30 236.60Q246.58 236.60 247.22 236.35Q247.86 236.10 248.02 236.10Q248.69 236.10 249.45 235.96Q250.20 235.82 250.87 235.54Q251.53 235.27 252.09 234.90Q252.65 234.54 252.87 234.10Q253.87 231.98 254.29 230.28Q254.71 228.58 254.71 227.47Q254.71 226.52 254.40 225.60Q254.10 224.68 253.48 223.93Q252.87 223.18 251.98 222.71Q251.09 222.23 249.97 222.23L249.47 222.23Q248.86 222.34 248.72 222.71Q248.58 223.07 248.41 223.85Q248.41 224.07 248.36 224.13Q248.36 225.02 248.64 225.41Q248.92 225.80 249.31 225.80Q249.42 225.80 249.81 225.60Q250.20 225.41 250.36 225.41L250.42 225.41Q250.36 225.57 250.22 225.94Q250.09 226.30 249.92 226.72Q249.75 227.13 249.58 227.47L249.47 227.75Q248.64 227.75 247.89 227.38Q247.13 227.02 246.49 226.58Q245.85 226.13 245.46 225.77Q245.07 225.41 245.02 225.41L245.02 225.13Q245.02 224.79 245.07 224.43Q245.13 224.07 245.16 223.79Q245.18 223.51 245.18 223.62Q245.35 223.46 245.74 223.10Q246.13 222.73 246.55 222.34Q246.97 221.95 247.30 221.65Q247.63 221.34 247.75 221.29L247.97 221.17Q248.58 220.90 249.06 220.70Q249.53 220.51 249.92 220.51Q250.70 220.51 251.48 220.84Q252.26 221.17 252.98 221.70Q253.71 222.23 254.35 222.84Q254.99 223.46 255.49 223.96Q256.21 224.74 256.71 226.19Q257.22 227.63 257.55 229.14Q257.88 230.64 258.05 231.90Q258.22 233.15 258.27 233.54Q258.33 233.98 258.33 234.26L258.33 234.65Q258.33 235.71 257.74 236.77Q257.16 237.83 256.35 238.66Q255.54 239.50 254.71 240.03Q253.87 240.56 253.43 240.56Q252.98 240.56 252.04 240.22Q251.09 239.89 250.03 239.47Q248.97 239.05 248.00 238.61Q247.02 238.16 246.63 237.99Q246.47 237.83 246.08 237.49Q245.69 237.16 245.24 236.77Q244.91 236.49 244.63 236.21Q244.63 236.60 244.52 237.33Q244.40 238.11 244.40 238.55Q244.40 239.28 244.96 239.28Q245.30 239.28 245.99 239.16Q246.69 239.05 247.19 239.05Q248.25 239.05 248.86 239.55L248.47 240L235.60 240L235.99 238.16Q236.44 238.61 236.83 238.75Q237.22 238.89 237.78 238.89Q239.06 238.89 239.75 238.86Q240.45 238.83 240.45 237.88Q240.45 237.55 240.39 237.05Q240.34 236.55 240.34 236.16Q240.34 235.66 240.39 235.54L240.62 232.54L240.62 231.98Q240.62 231.31 240.56 230.20Q240.51 229.08 240.42 228.00Q240.34 226.91 240.28 226.10Q240.23 225.30 240.23 225.24Q239.89 223.23 239.73 222.15Q239.56 221.06 239.48 220.45Q239.39 219.84 239.31 219.53Q239.22 219.22 239.06 218.89Q239.06 218.83 238.61 218.61Q238.17 218.39 237.66 218.19Q237.16 218.00 236.75 217.83Q236.33 217.66 236.38 217.66Q236.33 217.66 236.16 217.44Q235.99 217.22 235.88 217.22Q235.83 217.22 235.77 217.28L235.60 217.28L234.77 215.77L236.83 216.38Q237.33 216.55 237.78 216.55Q238.61 216.55 239.00 216.52Q239.39 216.50 239.89 216.19Q240.39 215.88 241.31 215.19Q242.23 214.49 244.07 213.15Q245.07 212.43 245.41 212.21Q245.74 211.98 245.80 211.98M244.57 232.54Q244.52 232.54 244.52 232.65L244.57 232.54L244.57 232.54Z" fill="#ffffff" style="fill: rgb(255, 255, 255);"></path></g><g id="SvgjsG1339" rel="mainfill" name="symbol" xmlns:name="symbol_mainfill" transform="translate(88.54345266094181,-0.3162199973080775) scale(0.8046307786695087)" fill="#ffffff"><g fill="#ffffff"><g fill="#ffffff"><path d="M52.602,85.909v5.46c0.747-0.878,1.217-2.028,1.217-2.999C53.818,87.398,53.349,86.525,52.602,85.909 M55.268,45.964    c-0.64,0.201-1.564,0.363-2.666,0.464v6.368c0,0,0,19.941,19.945,19.941H72.49c3.224,0,6.976,2.753,6.976,8.935    c0,6.186-9.182,13.062-9.182,5.772c0-7.293,9.583-1.517,6.584-4.517c-4.704-4.699-9.259-2.074-9.259,4.021    c0,6.088,3.637,6.068,5.159,6.068c1.525,0,9.849-1.677,9.849-11.314c0-11.953-10.027-11.98-10.027-11.98    c-17.309-0.651-17.322-18.275-17.322-18.275V45.964z M50,37.763c-3.405,0-6.162-0.501-6.162-1.12v1.806    c0,0.618,2.757,1.119,6.162,1.119c3.401,0,6.162-0.501,6.162-1.119v-1.806C56.162,37.261,53.401,37.763,50,37.763 M48.413,36.778    c0.507,0.025,2.712,0.039,3.174,0V20.353C51.061,20.356,50.532,20.36,50,20.36s-1.059-0.004-1.587-0.008V36.778z M50,43.242    c3.705,0,6.71-0.544,6.71-1.217v-3.151c0,0.673-3.005,1.217-6.71,1.217c-3.707,0-6.71-0.544-6.71-1.217v3.151    C43.29,42.698,46.293,43.242,50,43.242 M50,43.772c-3.405,0-6.162-0.501-6.162-1.121v1.806c0,0.618,2.757,1.12,6.162,1.12    c3.401,0,6.162-0.501,6.162-1.12v-1.806C56.162,43.271,53.401,43.772,50,43.772 M41.408,20.196    c1.967,2.639,3.323,6.252,3.323,11.225v4.819c0.642,0.203,1.566,0.367,2.667,0.466v-6.632c0-4.009-0.815-7.203-2.104-9.762    C43.978,20.282,42.684,20.245,41.408,20.196 M54.705,20.312c-1.288,2.559-2.104,5.752-2.104,9.762v6.632    c1.102-0.099,2.026-0.263,2.666-0.466v-4.819c0-4.973,1.356-8.586,3.324-11.225C57.316,20.245,56.02,20.282,54.705,20.312     M50,46.542c-0.55,0-1.081-0.014-1.587-0.043v38.81v6.953v5.909c0,0,0,1.436,1.432,1.436h0.308c0,0,1.435,0,1.435-1.436v-5.909    v-6.953v-38.81C51.08,46.528,50.55,46.542,50,46.542 M46.182,88.37c0,0.971,0.472,2.121,1.217,2.999v-5.46    C46.654,86.525,46.182,87.398,46.182,88.37 M17.382,81.704c0,9.638,8.325,11.314,9.849,11.314c1.521,0,5.16,0.02,5.16-6.068    c0-6.096-4.558-8.721-9.258-4.021c-3.001,3,6.583-2.776,6.583,4.517c0,7.289-9.18,0.413-9.18-5.772    c0-6.182,3.75-8.935,6.975-8.935h-0.057c19.944,0,19.944-19.941,19.944-19.941v-6.368c-1.102-0.102-2.026-0.263-2.667-0.464v5.484    c0,0-0.012,17.624-17.322,18.275C27.409,69.724,17.382,69.751,17.382,81.704 M90.397,7.164c0-3.738-18.089-6.771-40.397-6.771    c-22.31,0-40.397,3.032-40.397,6.771S27.69,13.933,50,13.933C72.309,13.933,90.397,10.902,90.397,7.164 M91.634,11.708V7.646    c0,4.218-18.641,7.637-41.634,7.637S8.366,11.864,8.366,7.646v4.062c0,4.218,18.641,7.637,41.634,7.637    S91.634,15.926,91.634,11.708" fill="#ffffff" style="fill: rgb(255, 255, 255);"></path></g></g></g></svg>